<svg viewBox="0 0 24 25" fill="none" xmlns="http://www.w3.org/2000/svg">
<path fill-rule="evenodd" clip-rule="evenodd" d="M12 0.74028C8.74036 0.74028 8.33236 0.753371 7.05273 0.81228H7.05164C5.77527 0.871189 4.90254 1.0741 4.13891 1.36973C3.3387 1.67131 2.61386 2.14374 2.01491 2.7541C1.40413 3.35335 0.931334 4.07855 0.629455 4.87919C0.333818 5.64283 0.129818 6.51555 0.072 7.7941C0.0141818 9.07264 0 9.48064 0 12.7403C0 15.9988 0.0130909 16.4068 0.072 17.6886C0.130909 18.965 0.333818 19.8377 0.629455 20.6014C0.930889 21.402 1.40332 22.1272 2.01382 22.7265C2.61362 23.3366 3.33919 23.8086 4.14 24.1097C4.90364 24.4065 5.77636 24.6105 7.05273 24.6683C8.33236 24.7261 8.74036 24.7403 12 24.7403C15.2596 24.7403 15.6676 24.7272 16.9484 24.6683C18.2247 24.6094 19.0975 24.4065 19.8611 24.1097C20.6607 23.8086 21.3862 23.3374 21.9862 22.7265C22.5963 22.1267 23.0684 21.4011 23.3695 20.6003C23.6662 19.8366 23.8702 18.9639 23.928 17.6876C23.9858 16.4079 24 15.9999 24 12.7403C24 9.48174 23.9869 9.07373 23.928 7.79192C23.8691 6.51555 23.6662 5.64283 23.3695 4.87919C23.0684 4.07846 22.5971 3.3541 21.9862 2.75519C21.3862 2.14428 20.6607 1.67192 19.8611 1.36973C19.0975 1.0741 18.2247 0.870098 16.9462 0.81228C15.6676 0.754462 15.2596 0.74028 12 0.74028ZM13.5877 6.78134C11.4592 6.211 9.18805 6.81955 7.62986 8.37775C5.22109 10.7865 5.22109 14.6919 7.62986 17.1007C10.0386 19.5094 13.944 19.5094 16.3528 17.1007C17.911 15.5425 18.5195 13.2713 17.9492 11.1428C17.3788 9.01426 15.7163 7.35168 13.5877 6.78134ZM15.3251 14.9668C14.2628 16.5566 12.2243 17.173 10.459 16.4381C8.96351 15.818 7.98867 14.3582 7.98891 12.7392C7.98915 11.1202 8.96442 9.66076 10.4601 9.04107C11.9558 8.42139 13.6775 8.7635 14.8227 9.90794C16.177 11.2577 16.3875 13.3769 15.3251 14.9668ZM19.9522 6.06613C20.0847 6.58057 19.9271 7.12637 19.5406 7.49089C18.9667 8.03228 18.0663 8.01916 17.5084 7.46127C16.9506 6.90338 16.9374 6.00299 17.4788 5.42907C17.8433 5.04265 18.3891 4.88497 18.9036 5.01747C19.418 5.14997 19.8197 5.55169 19.9522 6.06613Z" fill="#FED1C9"/>
</svg>
