<svg
        width="30"
        height="26"
        viewBox="0 0 30 26"
        fill="none"
        xmlns="http://www.w3.org/2000/svg"
      >
        <path
          d="M10.6724 0.483998C10.6724 1.852 10.4084 3.16 9.88041 4.408C9.35241 5.632 8.62041 6.748 7.68441 7.756C6.72441 8.74 5.5964 9.556 4.3004 10.204C2.9804 10.852 1.5524 11.26 0.0164058 11.428V14.632C1.5524 14.8 2.9804 15.208 4.3004 15.856C5.5964 16.504 6.72441 17.32 7.68441 18.304C8.62041 19.288 9.35241 20.404 9.88041 21.652C10.4084 22.9 10.6724 24.196 10.6724 25.54H14.2004C14.2004 23.14 13.6004 21.016 12.4004 19.168C11.1764 17.296 9.26841 15.82 6.67641 14.74L29.3564 14.92V11.14L6.67641 11.32C9.26841 10.24 11.1764 8.764 12.4004 6.892C13.6004 5.02 14.2004 2.884 14.2004 0.483998H10.6724Z"
          fill="white"
        />
      </svg>