<svg viewBox="0 0 24 25" fill="none" xmlns="http://www.w3.org/2000/svg">
<path d="M0 2.45928C0 1.50978 0.789 0.74028 1.7625 0.74028H22.2375C23.211 0.74028 24 1.50978 24 2.45928V23.0213C24 23.9708 23.211 24.7403 22.2375 24.7403H1.7625C0.789 24.7403 0 23.9708 0 23.0213V2.45928ZM7.4145 20.8313V9.99378H3.813V20.8313H7.4145ZM5.6145 8.51328C6.87 8.51328 7.6515 7.68228 7.6515 6.64128C7.629 5.57778 6.8715 4.76928 5.6385 4.76928C4.4055 4.76928 3.6 5.57928 3.6 6.64128C3.6 7.68228 4.3815 8.51328 5.5905 8.51328H5.6145ZM12.9765 20.8313V14.7788C12.9765 14.4548 13.0005 14.1308 13.0965 13.8998C13.356 13.2533 13.9485 12.5828 14.9445 12.5828C16.248 12.5828 16.7685 13.5758 16.7685 15.0338V20.8313H20.37V14.6153C20.37 11.2853 18.594 9.73728 16.224 9.73728C14.313 9.73728 13.4565 10.7873 12.9765 11.5268V11.5643H12.9525C12.9605 11.5518 12.9685 11.5393 12.9765 11.5268V9.99378H9.3765C9.4215 11.0108 9.3765 20.8313 9.3765 20.8313H12.9765Z" fill="#FED1C9"/>
</svg>
