<svg viewBox="0 0 221 53" fill="none" xmlns="http://www.w3.org/2000/svg">
<path d="M61.3145 16.5193L66.68 16.4995L66.7063 23.7762L73.5938 23.7506L73.5676 16.474L78.9331 16.4542L79.0037 35.8962L73.6381 35.916L73.611 28.5282L66.7235 28.5537L66.7505 35.9415L61.385 35.9613L61.3145 16.5193Z" fill="#FED1C9"/>
<path d="M83.8555 16.4368L89.2497 16.4171L89.3203 35.8591L83.926 35.8788L83.8555 16.4368H83.8555Z" fill="#FED1C9"/>
<path d="M92.9356 26.1807V26.1247C92.9151 20.4587 97.3237 15.9981 103.326 15.9767C106.729 15.9644 109.139 17.011 111.192 18.7805L108.053 22.5971C106.666 21.4353 105.281 20.774 103.372 20.7815C100.578 20.7913 98.4291 23.1603 98.4398 26.1321V26.1881C98.4513 29.327 100.645 31.5684 103.715 31.5569C105.015 31.5519 106.01 31.2703 106.81 30.74L106.802 28.3792L102.984 28.3932L102.971 24.449L111.878 24.4161L111.91 33.165C109.869 34.8671 107.025 36.1829 103.512 36.1953C97.482 36.2175 92.9578 32.0674 92.9364 26.179L92.9356 26.1807Z" fill="#FED1C9"/>
<path d="M116.555 16.3161L121.92 16.2963L121.946 23.573L128.834 23.5474L128.808 16.2708L134.173 16.251L134.244 35.693L128.878 35.7128L128.851 28.325L121.964 28.3505L121.991 35.7383L116.625 35.7581L116.555 16.3161Z" fill="#FED1C9"/>
<path fill-rule="evenodd" clip-rule="evenodd" d="M139.149 16.2332L149.079 16.197C151.513 16.1879 153.23 16.7931 154.369 17.927C155.146 18.7018 155.62 19.7278 155.625 21.061V21.117C155.633 23.3666 154.366 24.7046 152.654 25.4606C155.007 26.2296 156.506 27.557 156.515 30.1961V30.2521C156.528 33.5845 153.824 35.6225 149.205 35.6398L139.219 35.676L139.148 16.234L139.149 16.2332ZM147.778 23.95C149.409 23.9443 150.32 23.3851 150.316 22.2463V22.1903C150.311 21.1347 149.48 20.527 147.876 20.5328L144.391 20.546L144.403 23.9624L147.778 23.95ZM151.154 29.5207C151.158 30.6595 150.22 31.3018 148.588 31.3076L144.44 31.3224L144.427 27.7396L148.52 27.7248C150.318 27.7182 151.15 28.4091 151.154 29.4647V29.5207Z" fill="#FED1C9"/>
<path d="M160.262 16.156L175.973 16.0984L175.989 20.6816L165.59 20.7195L165.6 23.6632L172.681 23.6369L172.697 27.8866L165.616 27.913L165.627 30.9959L176.027 30.958L176.044 35.5412L160.332 35.5989L160.262 16.1568L160.262 16.156Z" fill="#FED1C9"/>
<path fill-rule="evenodd" clip-rule="evenodd" d="M189.878 16.047L180.723 16.0808L180.724 16.0824L180.795 35.5244L186.16 35.5047L186.139 29.6163L188.49 29.6081L192.412 35.4816L198.607 35.4586L193.963 28.6982C196.366 27.6615 197.935 25.6836 197.925 22.7119V22.6559C197.917 20.7389 197.331 19.2411 196.193 18.1344C194.888 16.8062 192.838 16.0363 189.878 16.047ZM192.52 23.0645C192.525 24.4817 191.477 25.3743 189.651 25.3809L186.111 25.394L186.094 20.7277L189.607 20.7145C191.405 20.7079 192.514 21.4819 192.52 23.0094V23.0645Z" fill="#FED1C9"/>
<path d="M201.029 25.7832V25.7272C201.009 20.0612 205.417 15.6007 211.42 15.5793C214.823 15.5669 217.233 16.6135 219.286 18.383L216.147 22.1996C214.759 21.0378 213.374 20.3766 211.465 20.384C208.672 20.3939 206.523 22.7629 206.534 25.7346V25.7906C206.545 28.9295 208.739 31.1709 211.809 31.1594C213.109 31.1545 214.103 30.8728 214.904 30.3425L214.896 27.9818L211.078 27.9958L211.064 24.0515L219.972 24.0186L220.004 32.7676C217.963 34.4696 215.119 35.7854 211.606 35.7978C205.576 35.82 201.052 31.6699 201.03 25.7816L201.029 25.7832Z" fill="#FED1C9"/>
<path d="M27.2561 45.274C27.2421 41.3562 28.1885 37.435 28.9109 33.9115C29.4653 30.9571 29.7433 29.4798 29.9015 26.5262C29.9007 26.2997 29.8999 26.1293 29.7875 26.1293C29.6752 26.1293 29.5612 26.2429 29.3923 26.415C27.1388 28.9207 25.7939 31.9921 24.9591 35.6292C24.2342 38.5845 23.9062 41.6518 22.6162 44.3823C21.7191 46.4301 20.3636 47.0592 18.7235 47.065C17.6492 47.0123 17.3671 47.07 16.4044 46.6763C12.5543 45.3284 11.9679 39.6525 11.9548 35.9051C11.9278 28.4102 14.1599 20.3397 16.5684 13.8577C18.416 8.7977 21.6191 3.39188 26.0186 0.252961C26.1375 0.169795 26.2622 0.0858049 26.3885 0.00181491C26.3146 0.00181491 26.2417 -0.000655384 26.167 0.000168047C11.6621 0.0528676 -0.0523073 11.902 0.000175665 26.4661C0.0526586 41.0301 11.8539 52.7936 26.3581 52.7401C27.2897 52.7368 28.2098 52.6841 29.1167 52.5853C27.8793 50.7268 27.2659 47.8555 27.2561 45.274Z" fill="#FED1C9"/>
<path d="M27.8396 6.09359C22.9939 10.8242 20.9824 17.3614 19.421 23.4993L19.3652 23.6129L19.4218 23.7265C19.535 23.7265 19.5907 23.6697 19.6482 23.6121C24.3249 19.1664 28.4956 15.2337 31.4142 9.31732C32.2564 7.66799 32.3105 7.15664 32.4737 5.28251C32.4712 4.65753 32.4114 3.69247 31.8463 3.69494C30.0939 3.87197 28.7416 5.12606 27.8404 6.09441L27.8396 6.09359Z" fill="#FED1C9"/>
<path d="M35.8409 1.80919C36.0041 2.38147 36.0918 2.99246 36.0943 3.62238C35.9393 7.71072 34.6477 9.92987 32.2844 13.2318C28.0636 18.8114 23.4976 22.8034 18.9332 26.8506C18.6503 27.0226 18.5387 27.2499 18.483 27.534C17.9278 30.3757 17.599 33.2717 17.6096 36.1109C17.6769 39.1197 17.8515 40.5384 19.048 43.0326C19.276 43.4295 19.5597 43.7696 19.8984 43.7679C20.9161 43.7638 21.527 40.7525 21.9157 38.7071C22.4126 35.4126 23.3057 32.1732 24.708 29.1018C25.9413 26.1449 28.1915 23.0134 31.3577 22.8882C34.0155 22.8783 35.157 25.7702 35.1685 29.0631C35.1865 33.9461 32.8313 39.4622 32.8527 45.1966C32.8551 45.9344 32.9142 46.673 33.0306 47.4108C33.0888 47.6941 33.3176 48.6015 33.5448 48.7719C33.9958 48.4294 34.3902 47.974 34.7839 47.5178C36.729 45.069 37.9739 42.5888 39.2343 39.8953C39.3187 39.715 39.5779 39.7224 39.6492 39.9085C39.8493 40.4265 40.1585 40.8909 40.5767 41.2606C40.6497 41.3248 40.6784 41.4261 40.6423 41.5175C39.413 44.6754 38.0222 48.1 36.7741 50.5423C46.0767 46.4573 52.5617 37.1196 52.5223 26.2758C52.4821 15.1405 45.5732 5.64226 35.8401 1.81166L35.8409 1.80919Z" fill="#FED1C9"/>
</svg>
