<svg width="30" height="30" viewBox="0 0 30 30" fill="none" xmlns="http://www.w3.org/2000/svg">
<path d="M10.3125 5.625C10.3125 3.03616 12.4112 0.9375 15 0.9375C17.5888 0.9375 19.6875 3.03617 19.6875 5.625V15.9375C19.6875 18.5263 17.5888 20.625 15 20.625C12.4112 20.625 10.3125 18.5263 10.3125 15.9375V5.625Z" fill="white"/>
<path d="M7.5 13.125C8.01777 13.125 8.4375 13.5447 8.4375 14.0625V15.9375C8.4375 19.5619 11.3756 22.5 15 22.5C18.6244 22.5 21.5625 19.5619 21.5625 15.9375V14.0625C21.5625 13.5447 21.9822 13.125 22.5 13.125C23.0178 13.125 23.4375 13.5447 23.4375 14.0625V15.9375C23.4375 20.2805 20.1562 23.8572 15.9375 24.3235V27.1875H19.6875C20.2053 27.1875 20.625 27.6072 20.625 28.125C20.625 28.6428 20.2053 29.0625 19.6875 29.0625H10.3125C9.79473 29.0625 9.375 28.6428 9.375 28.125C9.375 27.6072 9.79473 27.1875 10.3125 27.1875H14.0625V24.3235C9.8438 23.8572 6.5625 20.2805 6.5625 15.9375V14.0625C6.5625 13.5447 6.98223 13.125 7.5 13.125Z" fill="white"/>
</svg>
