<svg width="30" height="26" viewBox="0 0 30 26" fill="none" xmlns="http://www.w3.org/2000/svg">
<path d="M19.3276 0.483998C19.3276 1.852 19.5916 3.16 20.1196 4.408C20.6476 5.632 21.3796 6.748 22.3156 7.756C23.2756 8.74 24.4036 9.556 25.6996 10.204C27.0196 10.852 28.4476 11.26 29.9836 11.428V14.632C28.4476 14.8 27.0196 15.208 25.6996 15.856C24.4036 16.504 23.2756 17.32 22.3156 18.304C21.3796 19.288 20.6476 20.404 20.1196 21.652C19.5916 22.9 19.3276 24.196 19.3276 25.54H15.7996C15.7996 23.14 16.3996 21.016 17.5996 19.168C18.8236 17.296 20.7316 15.82 23.3236 14.74L0.643594 14.92V11.14L23.3236 11.32C20.7316 10.24 18.8236 8.764 17.5996 6.892C16.3996 5.02 15.7996 2.884 15.7996 0.483998H19.3276Z" fill="white"/>
</svg>
